<?xml version="1.0" encoding="UTF-8" standalone="no"?>
<!-- Generator: IcoMoon.io -->

<svg
   xmlns:dc="http://purl.org/dc/elements/1.1/"
   xmlns:cc="http://creativecommons.org/ns#"
   xmlns:rdf="http://www.w3.org/1999/02/22-rdf-syntax-ns#"
   xmlns:svg="http://www.w3.org/2000/svg"
   xmlns="http://www.w3.org/2000/svg"
   xmlns:sodipodi="http://sodipodi.sourceforge.net/DTD/sodipodi-0.dtd"
   xmlns:inkscape="http://www.inkscape.org/namespaces/inkscape"
   version="1.1"
   id="Layer_1"
   x="0px"
   y="0px"
   width="30.025038"
   height="59.974716"
   viewBox="0 0 30.025038 59.974716"
   enable-background="new 0 0 16 16"
   xml:space="preserve"
   inkscape:version="0.48.2 r9819"
   sodipodi:docname="blog.svg"
   style="fill:#000000"
   inkscape:export-filename="/Users/deepansubramani/Projects/sdeepan.github.com/static/img/blog.png"
   inkscape:export-xdpi="89.989998"
   inkscape:export-ydpi="89.989998"><metadata
   id="metadata9"><rdf:RDF><cc:Work
       rdf:about=""><dc:format>image/svg+xml</dc:format><dc:type
         rdf:resource="http://purl.org/dc/dcmitype/StillImage" /><dc:title></dc:title></cc:Work></rdf:RDF></metadata><defs
   id="defs7" /><sodipodi:namedview
   pagecolor="#ffffff"
   bordercolor="#666666"
   borderopacity="1"
   objecttolerance="10"
   gridtolerance="10"
   guidetolerance="10"
   inkscape:pageopacity="0"
   inkscape:pageshadow="2"
   inkscape:window-width="1628"
   inkscape:window-height="1006"
   id="namedview5"
   showgrid="false"
   inkscape:zoom="8.58"
   inkscape:cx="-9.8047026"
   inkscape:cy="23.663861"
   inkscape:window-x="52"
   inkscape:window-y="0"
   inkscape:window-maximized="1"
   inkscape:current-layer="Layer_1"
   fit-margin-top="0"
   fit-margin-left="0"
   fit-margin-right="0"
   fit-margin-bottom="0"
   showborder="false"
   inkscape:showpageshadow="false" /> <g
   id="g3774"
   transform="matrix(0.83434273,0,0,0.83299279,-0.00284433,9.7127669)"><g
     id="g3766"><path
       sodipodi:type="arc"
       style="fill:#ffffff;fill-opacity:0;fill-rule:nonzero;stroke:#3e4044;stroke-width:5.40005541;stroke-linecap:butt;stroke-linejoin:miter;stroke-miterlimit:4;stroke-opacity:1;stroke-dasharray:none"
       id="path3786"
       sodipodi:cx="0.40677965"
       sodipodi:cy="16.677965"
       sodipodi:rx="36"
       sodipodi:ry="37.220341"
       d="m 36.40678,16.677965 c 0,20.556227 -16.117749,37.220341 -36.00000035,37.220341 -19.88225065,0 -35.99999965,-16.664114 -35.99999965,-37.220341 0,-20.5562264 16.117749,-37.220341 35.99999965,-37.220341 19.88225135,0 36.00000035,16.6641146 36.00000035,37.220341 z"
       transform="matrix(0.38804211,0,0,0.37532333,14.855017,8.7262667)" /><path
       d="m 13.406199,20.331885 -5.6000298,1.866696 1.8666766,-5.600088 9.3333832,-9.333481 3.733353,3.733392 -9.333383,9.333481 z m -3.7333532,0 2.8000152,-0.933348 -1.866677,-1.866696 -0.9333382,2.800044 z m 1.8666762,-3.733392 1.866677,1.866696 5.60003,-5.600089 -1.866677,-1.866696 -5.60003,5.600089 z"
       id="path3"
       inkscape:connector-curvature="0"
       style="fill:#3e4044;fill-opacity:1" /></g><g
     id="g3770"><path
       transform="matrix(0.38804414,0,0,0.37532333,14.854815,38.733761)"
       d="m 36.40678,16.677965 c 0,20.556227 -16.117749,37.220341 -36.00000035,37.220341 -19.88225065,0 -35.99999965,-16.664114 -35.99999965,-37.220341 0,-20.5562264 16.117749,-37.220341 35.99999965,-37.220341 19.88225135,0 36.00000035,16.6641146 36.00000035,37.220341 z"
       sodipodi:ry="37.220341"
       sodipodi:rx="36"
       sodipodi:cy="16.677965"
       sodipodi:cx="0.40677965"
       id="path4308"
       style="fill:#3e4044;fill-opacity:1;fill-rule:nonzero;stroke:#3e4044;stroke-width:5.40005541;stroke-linecap:butt;stroke-linejoin:miter;stroke-miterlimit:4;stroke-opacity:1;stroke-dasharray:none"
       sodipodi:type="arc" /><path
       inkscape:connector-curvature="0"
       id="path4310"
       d="m 13.40599,50.339379 -5.6000594,1.866696 1.8666863,-5.600088 9.3334321,-9.333481 3.733372,3.733393 -9.333431,9.33348 z m -3.7333731,0 2.8000291,-0.933348 -1.866686,-1.866696 -0.9333431,2.800044 z m 1.8666861,-3.733392 1.866687,1.866696 5.600059,-5.600088 -1.866687,-1.866696 -5.600059,5.600088 z"
       style="fill:#ffffff;fill-opacity:1" /></g></g></svg>