<?xml version="1.0" encoding="UTF-8" standalone="no"?>
<svg
   xmlns:dc="http://purl.org/dc/elements/1.1/"
   xmlns:cc="http://creativecommons.org/ns#"
   xmlns:rdf="http://www.w3.org/1999/02/22-rdf-syntax-ns#"
   xmlns:svg="http://www.w3.org/2000/svg"
   xmlns="http://www.w3.org/2000/svg"
   xmlns:sodipodi="http://sodipodi.sourceforge.net/DTD/sodipodi-0.dtd"
   xmlns:inkscape="http://www.inkscape.org/namespaces/inkscape"
   height="60"
   id="Layer_1"
   version="1.1"
   viewBox="0 0 30 60"
   width="30"
   x="0px"
   xml:space="preserve"
   y="0px"
   inkscape:version="0.48.2 r9819"
   sodipodi:docname="github_octocat.svg"
   inkscape:export-filename="/Users/deepansubramani/Projects/sdeepan.github.com/static/img/github.png"
   inkscape:export-xdpi="89.989998"
   inkscape:export-ydpi="89.989998"><metadata
     id="metadata9"><rdf:RDF><cc:Work
         rdf:about=""><dc:format>image/svg+xml</dc:format><dc:type
           rdf:resource="http://purl.org/dc/dcmitype/StillImage" /><dc:title></dc:title></cc:Work></rdf:RDF></metadata><defs
     id="defs7" /><sodipodi:namedview
     pagecolor="#ffffff"
     bordercolor="#666666"
     borderopacity="1"
     objecttolerance="10"
     gridtolerance="10"
     guidetolerance="10"
     inkscape:pageopacity="0"
     inkscape:pageshadow="2"
     inkscape:window-width="1628"
     inkscape:window-height="1006"
     id="namedview5"
     showgrid="false"
     inkscape:zoom="22.89"
     inkscape:cx="12.522453"
     inkscape:cy="29.997119"
     inkscape:window-x="52"
     inkscape:window-y="0"
     inkscape:window-maximized="1"
     inkscape:current-layer="Layer_1"
     showborder="false"
     inkscape:showpageshadow="false"
     fit-margin-top="0"
     fit-margin-left="0"
     fit-margin-right="0"
     fit-margin-bottom="0" /><g
     id="g3794"
     inkscape:export-filename="/Users/deepansubramani/Projects/sdeepan.github.com/static/img/github.png"
     inkscape:export-xdpi="89.989998"
     inkscape:export-ydpi="89.989998"
     transform="matrix(0.83333332,0,0,0.83583467,0,9.8351811)"><g
       id="g3784"><path
         d="m 8.0063789,15.329589 c -0.030113,-5.41e-4 0.3301246,0.738576 0.3401622,0.738576 0.7862753,1.360363 2.3019469,2.205994 4.8587369,2.440651 -0.364699,0.263855 -0.803005,0.764529 -0.863789,1.343061 -0.458939,0.282779 -1.381837,0.376317 -2.098964,0.160584 -1.0054288,-0.302242 -1.3902017,-2.198424 -2.8952791,-1.928082 -0.3256626,0.05785 -0.2609766,0.262773 0.020636,0.436874 0.4589399,0.283319 0.890555,0.637468 1.2234673,1.390641 0.2559584,0.578534 0.7935249,1.611783 2.4943338,1.611783 0.674747,0 1.147628,-0.07731 1.147628,-0.07731 0,0 0.01282,1.47661 0.01282,2.050818 0,0.662339 -0.937954,0.848876 -0.937954,1.167338 0,0.125981 0.310606,0.137875 0.559872,0.137875 0.492955,0 1.51846,-0.391996 1.51846,-1.080289 0,-0.546632 0.0095,-2.38496 0.0095,-2.706668 0,-0.702891 0.395367,-0.925653 0.395367,-0.925653 0,0 0.04908,3.752354 -0.09424,4.256273 -0.16841,0.591509 -0.472324,0.507703 -0.472324,0.771557 0,0.392537 1.23462,0.09678 1.643929,-0.76561 0.316182,-0.669908 0.177888,-4.352515 0.177888,-4.352515 l 0.337373,-0.0065 c 0,0 0.01896,1.685316 0.0073,2.455792 -0.01171,0.798051 -0.06859,1.806969 0.428828,2.282773 0.326777,0.313055 1.385183,0.861851 1.385183,0.360095 0,-0.291428 -0.579949,-0.530953 -0.579949,-1.319811 l 0,-3.630705 c 0.463401,0 0.393696,1.193832 0.393696,1.193832 l 0.03401,2.21843 c 0,0 -0.102607,0.807784 0.917321,1.145713 0.35968,0.120573 1.129225,0.152473 1.165473,-0.04866 0.03624,-0.201677 -0.926801,-0.501756 -0.935724,-1.126787 -0.0056,-0.382265 0.01784,-0.605027 0.01784,-2.263849 0,-1.658821 -0.233652,-2.271958 -1.048366,-2.760738 2.51385,-0.246011 4.070229,-0.838602 4.828065,-2.425511 0.05911,0.0017 0.309491,-0.74128 0.276591,-0.74128 0.17008,-0.599079 0.262091,-1.307917 0.279935,-2.147061 -0.0045,-2.276241 -1.147613,-3.08132 -1.366766,-3.45926 C 21.510794,8.0027658 21.13272,7.2187737 20.957613,6.9495123 20.309632,6.7299942 18.704181,7.5145278 17.826451,8.0665671 16.396657,7.6680829 13.373121,7.7064712 12.239435,8.1692982 10.14772,6.7424301 9.0407997,6.9608673 9.0407997,6.9608673 c 0,0 -0.7154546,1.2214071 -0.1890413,3.0089115 -0.6881303,0.8358992 -1.2011607,1.4274092 -1.2011607,2.9948542 5.58e-4,0.88402 0.1098515,1.674501 0.3557812,2.364952 z"
         style="fill:#3e4044;fill-opacity:1;fill-rule:evenodd;stroke:#000000;stroke-width:0;stroke-miterlimit:4;stroke-opacity:1;stroke-dasharray:none"
         id="path3"
         inkscape:connector-curvature="0"
         sodipodi:nodetypes="ccccccccscsssssccscccccssccccccscccccccccccc" /><path
         sodipodi:type="arc"
         style="fill:#ffffff;fill-opacity:0;fill-rule:nonzero;stroke:#3e4044;stroke-width:7.53437662;stroke-linecap:butt;stroke-linejoin:miter;stroke-miterlimit:4;stroke-opacity:1;stroke-dasharray:none"
         id="path3767"
         sodipodi:cx="-70.122879"
         sodipodi:cy="16.608051"
         sodipodi:rx="47.978813"
         sodipodi:ry="54.366524"
         d="m -22.144066,16.608051 c 0,30.025802 -21.480846,54.366524 -47.978813,54.366524 -26.497967,0 -47.978811,-24.340722 -47.978811,-54.366524 0,-30.025802 21.480844,-54.366523 47.978811,-54.366523 26.497967,0 47.978813,24.340721 47.978813,54.366523 z"
         transform="matrix(0.29116163,0,0,0.25695204,35.417092,10.732527)" /></g><g
       id="g3790"><path
         transform="matrix(0.29116163,0,0,0.25695204,35.417092,40.732527)"
         d="m -22.144066,16.608051 c 0,30.025802 -21.480846,54.366524 -47.978813,54.366524 -26.497967,0 -47.978811,-24.340722 -47.978811,-54.366524 0,-30.025802 21.480844,-54.366523 47.978811,-54.366523 26.497967,0 47.978813,24.340721 47.978813,54.366523 z"
         sodipodi:ry="54.366524"
         sodipodi:rx="47.978813"
         sodipodi:cy="16.608051"
         sodipodi:cx="-70.122879"
         id="path3006"
         style="fill:#3e4044;fill-opacity:1;fill-rule:nonzero;stroke:#3e4044;stroke-width:7.53437662;stroke-linecap:butt;stroke-linejoin:miter;stroke-miterlimit:4;stroke-opacity:1;stroke-dasharray:none"
         sodipodi:type="arc" /><path
         sodipodi:nodetypes="ccccccccscsssssccscccccssccccccscccccccccccc"
         inkscape:connector-curvature="0"
         id="path3004"
         style="fill:#ffffff;fill-opacity:1;fill-rule:evenodd;stroke:#000000;stroke-width:0;stroke-miterlimit:4;stroke-opacity:1;stroke-dasharray:none"
         d="m 8.0063789,45.329589 c -0.030113,-5.41e-4 0.3301246,0.738576 0.3401622,0.738576 0.7862753,1.360363 2.3019469,2.205994 4.8587369,2.440651 -0.364699,0.263855 -0.803005,0.764529 -0.863789,1.343061 -0.458939,0.282779 -1.381837,0.376317 -2.098964,0.160584 -1.0054288,-0.302242 -1.3902017,-2.198424 -2.8952791,-1.928082 -0.3256626,0.05785 -0.2609766,0.262773 0.020636,0.436874 0.4589399,0.283319 0.890555,0.637468 1.2234673,1.390641 0.2559584,0.578534 0.7935249,1.611783 2.4943338,1.611783 0.674747,0 1.147628,-0.07731 1.147628,-0.07731 0,0 0.01282,1.47661 0.01282,2.050818 0,0.662339 -0.937954,0.848876 -0.937954,1.167338 0,0.125981 0.310606,0.137875 0.559872,0.137875 0.492955,0 1.51846,-0.391996 1.51846,-1.080289 0,-0.546632 0.0095,-2.38496 0.0095,-2.706668 0,-0.702891 0.395367,-0.925653 0.395367,-0.925653 0,0 0.04908,3.752354 -0.09424,4.256273 -0.16841,0.591509 -0.472324,0.507703 -0.472324,0.771557 0,0.392537 1.23462,0.09678 1.643929,-0.76561 0.316182,-0.669908 0.177888,-4.352515 0.177888,-4.352515 l 0.337373,-0.0065 c 0,0 0.01896,1.685316 0.0073,2.455792 -0.01171,0.798051 -0.06859,1.806969 0.428828,2.282773 0.326777,0.313055 1.385183,0.861851 1.385183,0.360095 0,-0.291428 -0.579949,-0.530953 -0.579949,-1.319811 l 0,-3.630705 c 0.463401,0 0.393696,1.193832 0.393696,1.193832 l 0.03401,2.21843 c 0,0 -0.102607,0.807784 0.917321,1.145713 0.35968,0.120573 1.129225,0.152473 1.165473,-0.04866 0.03624,-0.201677 -0.926801,-0.501756 -0.935724,-1.126787 -0.0056,-0.382265 0.01784,-0.605027 0.01784,-2.263849 0,-1.658821 -0.233652,-2.271958 -1.048366,-2.760738 2.51385,-0.246011 4.070229,-0.838602 4.828065,-2.425511 0.05911,0.0017 0.309491,-0.74128 0.276591,-0.74128 0.17008,-0.599079 0.262091,-1.307917 0.279935,-2.147061 -0.0045,-2.276241 -1.147613,-3.08132 -1.366766,-3.45926 0.323355,-1.7232 -0.05472,-2.507192 -0.229826,-2.776454 -0.647981,-0.219518 -2.253432,0.565016 -3.131162,1.117055 -1.429794,-0.398484 -4.45333,-0.360096 -5.587016,0.102731 -2.091715,-1.426868 -3.1986353,-1.208431 -3.1986353,-1.208431 0,0 -0.7154546,1.221407 -0.1890413,3.008912 -0.6881303,0.835899 -1.2011607,1.427409 -1.2011607,2.994854 5.58e-4,0.88402 0.1098515,1.674501 0.3557812,2.364952 z" /></g></g></svg>