<?xml version="1.0" encoding="UTF-8" standalone="no"?>
<svg
   xmlns:dc="http://purl.org/dc/elements/1.1/"
   xmlns:cc="http://creativecommons.org/ns#"
   xmlns:rdf="http://www.w3.org/1999/02/22-rdf-syntax-ns#"
   xmlns:svg="http://www.w3.org/2000/svg"
   xmlns="http://www.w3.org/2000/svg"
   xmlns:sodipodi="http://sodipodi.sourceforge.net/DTD/sodipodi-0.dtd"
   xmlns:inkscape="http://www.inkscape.org/namespaces/inkscape"
   height="60"
   id="Layer_1"
   version="1.1"
   viewBox="0 0 30 60"
   width="30"
   x="0px"
   xml:space="preserve"
   y="0px"
   inkscape:version="0.48.2 r9819"
   sodipodi:docname="github.svg"
   inkscape:export-filename="/Users/deepansubramani/Projects/sdeepan.github.com/static/img/github.png"
   inkscape:export-xdpi="89.989998"
   inkscape:export-ydpi="89.989998"><metadata
     id="metadata9"><rdf:RDF><cc:Work
         rdf:about=""><dc:format>image/svg+xml</dc:format><dc:type
           rdf:resource="http://purl.org/dc/dcmitype/StillImage" /><dc:title></dc:title></cc:Work></rdf:RDF></metadata><defs
     id="defs7" /><sodipodi:namedview
     pagecolor="#ffffff"
     bordercolor="#666666"
     borderopacity="1"
     objecttolerance="10"
     gridtolerance="10"
     guidetolerance="10"
     inkscape:pageopacity="0"
     inkscape:pageshadow="2"
     inkscape:window-width="1628"
     inkscape:window-height="1006"
     id="namedview5"
     showgrid="false"
     inkscape:zoom="18.58"
     inkscape:cx="15.56654"
     inkscape:cy="33.606047"
     inkscape:window-x="52"
     inkscape:window-y="0"
     inkscape:window-maximized="1"
     inkscape:current-layer="Layer_1"
     showborder="false"
     inkscape:showpageshadow="false"
     fit-margin-top="0"
     fit-margin-left="0"
     fit-margin-right="0"
     fit-margin-bottom="0" /><g
     id="g3845"
     transform="matrix(0.83333332,0,0,0.83583467,0,9.8351811)"
     inkscape:export-filename="/Users/deepansubramani/Projects/sdeepan.github.com/static/img/github.png"
     inkscape:export-xdpi="89.989998"
     inkscape:export-ydpi="89.989998"><g
       id="g3829"><path
         transform="matrix(0.29116163,0,0,0.25695204,35.417092,40.732527)"
         d="m -22.144066,16.608051 c 0,30.025802 -21.480846,54.366524 -47.978813,54.366524 -26.497967,0 -47.978811,-24.340722 -47.978811,-54.366524 0,-30.025802 21.480844,-54.366523 47.978811,-54.366523 26.497967,0 47.978813,24.340721 47.978813,54.366523 z"
         sodipodi:ry="54.366524"
         sodipodi:rx="47.978813"
         sodipodi:cy="16.608051"
         sodipodi:cx="-70.122879"
         id="path3057"
         style="fill:#000000;fill-opacity:1;fill-rule:nonzero;stroke:#000000;stroke-width:7.53437662;stroke-linecap:butt;stroke-linejoin:miter;stroke-miterlimit:4;stroke-opacity:1;stroke-dasharray:none"
         sodipodi:type="arc" /><path
         sodipodi:nodetypes="ccccccccsccaaacscccccccccccc"
         inkscape:connector-curvature="0"
         id="path3055"
         style="fill:#ffffff;fill-opacity:1;fill-rule:evenodd;stroke:#000000;stroke-width:0;stroke-miterlimit:4;stroke-opacity:1;stroke-dasharray:none"
         d="m 7.5917873,47.897815 c -0.031793,-6.33e-4 0.3485496,0.866293 0.3591474,0.866293 0.8301595,1.595601 2.4304243,2.587462 5.1299143,2.862697 -0.385052,0.309481 -0.847822,0.896733 -0.911998,1.575308 -0.484554,0.331677 -1.458961,0.44139 -2.2161129,0.188352 -1.0615444,-0.354507 -1.4677926,-2.578583 -3.0568717,-2.261493 -0.3438387,0.06785 -0.2755423,0.308213 0.021788,0.51242 0.4845545,0.332311 0.9402591,0.7477 1.2917521,1.631115 0.2702434,0.678575 0.8378126,1.890497 2.6335485,1.890497 0.712405,0 1.211679,-0.09068 1.211679,-0.09068 l -0.222557,2.490657 c 0,0 1.196481,0.272971 1.80503,0.340579 0.691943,0.07687 1.391863,0.104489 2.087335,0.07266 0.497163,-0.02275 0.992418,-0.09413 1.481164,-0.188019 0.447654,-0.086 0.732928,-0.155565 1.323874,-0.342735 -0.07315,-0.448368 -0.156185,-0.646274 -0.156185,-2.591945 0,-1.945669 -0.246692,-2.664832 -1.106878,-3.238133 2.654154,-0.288552 4.297399,-0.983616 5.097532,-2.844939 0.06241,0.0019 0.326765,-0.869463 0.292028,-0.869463 0.179574,-0.702674 0.276719,-1.534087 0.29556,-2.518337 -0.0047,-2.669905 -1.211681,-3.614203 -1.443064,-4.057496 0.341444,-2.021147 -0.05773,-2.94071 -0.242611,-3.256532 -0.684146,-0.257478 -2.379202,0.662718 -3.30592,1.310218 -1.509594,-0.467391 -4.701881,-0.422365 -5.898841,0.1205 -2.2084602,-1.673606 -3.3771595,-1.417396 -3.3771595,-1.417396 0,0 -0.7553858,1.432616 -0.1995915,3.529221 -0.7265371,0.980444 -1.268201,1.67424 -1.268201,3.512733 5.892e-4,1.036887 0.1159826,1.964061 0.3756383,2.773918 z" /></g><g
       id="g3841"><path
         sodipodi:type="arc"
         style="fill:#ffffff;fill-opacity:0;fill-rule:nonzero;stroke:#000000;stroke-width:7.53437662;stroke-linecap:butt;stroke-linejoin:miter;stroke-miterlimit:4;stroke-opacity:1;stroke-dasharray:none"
         id="path3835"
         sodipodi:cx="-70.122879"
         sodipodi:cy="16.608051"
         sodipodi:rx="47.978813"
         sodipodi:ry="54.366524"
         d="m -22.144066,16.608051 c 0,30.025802 -21.480846,54.366524 -47.978813,54.366524 -26.497967,0 -47.978811,-24.340722 -47.978811,-54.366524 0,-30.025802 21.480844,-54.366523 47.978811,-54.366523 26.497967,0 47.978813,24.340721 47.978813,54.366523 z"
         transform="matrix(0.29116163,0,0,0.25695204,35.417092,10.732527)" /><path
         d="m 7.5917873,17.897815 c -0.031793,-6.33e-4 0.3485496,0.866293 0.3591474,0.866293 0.8301595,1.595601 2.4304243,2.587462 5.1299143,2.862697 -0.385052,0.309481 -0.847822,0.896733 -0.911998,1.575308 -0.484554,0.331677 -1.458961,0.44139 -2.2161129,0.188352 -1.0615444,-0.354507 -1.4677926,-2.578583 -3.0568717,-2.261493 -0.3438387,0.06785 -0.2755423,0.308213 0.021788,0.51242 0.4845545,0.332311 0.9402591,0.7477 1.2917521,1.631115 0.2702434,0.678575 0.8378126,1.890497 2.6335485,1.890497 0.712405,0 1.211679,-0.09068 1.211679,-0.09068 l -0.222557,2.490657 c 0,0 1.196481,0.272971 1.80503,0.340579 0.691943,0.07687 1.391863,0.104489 2.087335,0.07266 0.497163,-0.02275 0.992418,-0.09413 1.481164,-0.188019 0.447654,-0.086 0.732928,-0.155565 1.323874,-0.342735 -0.07315,-0.448368 -0.156185,-0.646274 -0.156185,-2.591945 0,-1.945669 -0.246692,-2.664832 -1.106878,-3.238133 2.654154,-0.288552 4.297399,-0.983616 5.097532,-2.844939 0.06241,0.0019 0.326765,-0.869463 0.292028,-0.869463 0.179574,-0.702674 0.276719,-1.534087 0.29556,-2.518337 -0.0047,-2.669905 -1.211681,-3.614203 -1.443064,-4.057496 C 21.849917,9.304006 21.450743,8.384443 21.265862,8.068621 20.581716,7.811143 18.88666,8.731339 17.959942,9.378839 16.450348,8.911448 13.258061,8.956474 12.061101,9.499339 9.8526408,7.825733 8.6839415,8.081943 8.6839415,8.081943 c 0,0 -0.7553858,1.432616 -0.1995915,3.529221 -0.7265371,0.980444 -1.268201,1.67424 -1.268201,3.512733 5.892e-4,1.036887 0.1159826,1.964061 0.3756383,2.773918 z"
         style="fill:#000000;fill-opacity:1;fill-rule:evenodd;stroke:#000000;stroke-width:0;stroke-miterlimit:4;stroke-opacity:1;stroke-dasharray:none"
         id="path3837"
         inkscape:connector-curvature="0"
         sodipodi:nodetypes="ccccccccsccaaacscccccccccccc" /></g></g></svg>